<svg width="293" height="32" viewBox="0 0 293 32" fill="none" xmlns="http://www.w3.org/2000/svg">
<path d="M0.5 16C0.5 7.43959 7.43959 0.5 16 0.5H277C285.56 0.5 292.5 7.43959 292.5 16C292.5 24.5604 285.56 31.5 277 31.5H16C7.43959 31.5 0.5 24.5604 0.5 16Z" fill="#F6F6F6" stroke="#E8E8E8"/>
<path d="M24.5439 21H23.0205V16.8169H18.7422V21H17.2251V11.7197H18.7422V15.5156H23.0205V11.7197H24.5439V21ZM31.2217 21L30.9233 20.0225H30.8726C30.534 20.4499 30.1934 20.7419 29.8506 20.8984C29.5078 21.0508 29.0677 21.127 28.5303 21.127C27.8405 21.127 27.3009 20.9408 26.9116 20.5684C26.5265 20.196 26.334 19.6691 26.334 18.9878C26.334 18.2642 26.6027 17.7183 27.1401 17.3501C27.6776 16.9819 28.4964 16.7809 29.5967 16.7471L30.8091 16.709V16.3345C30.8091 15.8859 30.7033 15.5516 30.4917 15.3315C30.2843 15.1073 29.9606 14.9951 29.5205 14.9951C29.1608 14.9951 28.8159 15.048 28.4858 15.1538C28.1558 15.2596 27.8384 15.3844 27.5337 15.5283L27.0513 14.4619C27.4321 14.263 27.849 14.1128 28.3018 14.0112C28.7546 13.9054 29.182 13.8525 29.584 13.8525C30.4769 13.8525 31.1497 14.0472 31.6025 14.4365C32.0596 14.8258 32.2881 15.4373 32.2881 16.271V21H31.2217ZM29 19.9844C29.5417 19.9844 29.9754 19.8341 30.3013 19.5337C30.6313 19.229 30.7964 18.8037 30.7964 18.2578V17.6484L29.895 17.6865C29.1925 17.7119 28.6805 17.8304 28.3589 18.042C28.0415 18.2493 27.8828 18.5688 27.8828 19.0005C27.8828 19.3136 27.9759 19.557 28.1621 19.7305C28.3483 19.8997 28.6276 19.9844 29 19.9844ZM35.7983 13.9795V17.5786C35.7983 17.9976 35.7645 18.6133 35.6968 19.4258L39.2197 13.9795H41.0415V21H39.6069V17.4644C39.6069 17.2697 39.6175 16.9544 39.6387 16.5186C39.6641 16.0827 39.6852 15.7653 39.7021 15.5664L36.1919 21H34.3701V13.9795H35.7983ZM37.6582 13.1226C36.7611 13.1226 36.103 12.9618 35.6841 12.6401C35.2694 12.3143 35.0387 11.7726 34.9922 11.0151H36.3442C36.3696 11.3198 36.4268 11.5568 36.5156 11.7261C36.6087 11.8953 36.7399 12.0181 36.9092 12.0942C37.0827 12.1662 37.3451 12.2021 37.6963 12.2021C38.111 12.2021 38.4263 12.1112 38.6421 11.9292C38.8579 11.743 38.9891 11.4383 39.0356 11.0151H40.4131C40.3496 11.743 40.0936 12.2762 39.645 12.6147C39.1965 12.9533 38.5342 13.1226 37.6582 13.1226ZM48.4429 13.9795V15.1475H46.1577V21H44.6597V15.1475H42.3745V13.9795H48.4429ZM51.2231 13.9795V17.5786C51.2231 17.9976 51.1893 18.6133 51.1216 19.4258L54.6445 13.9795H56.4663V21H55.0317V17.4644C55.0317 17.2697 55.0423 16.9544 55.0635 16.5186C55.0889 16.0827 55.11 15.7653 55.127 15.5664L51.6167 21H49.7949V13.9795H51.2231Z" fill="#BDBDBD"/>
</svg>
