<svg width="40" height="40" viewBox="0 0 40 40" fill="none" xmlns="http://www.w3.org/2000/svg">
<g opacity="0.8">
<g opacity="0.6">
<path fill-rule="evenodd" clip-rule="evenodd" d="M26 20C26 23.3137 23.3137 26 20 26C16.6863 26 14 23.3137 14 20C14 16.6863 16.6863 14 20 14C23.3137 14 26 16.6863 26 20ZM23 20C23 21.6569 21.6569 23 20 23C18.3432 23 17 21.6569 17 20C17 18.3431 18.3432 17 20 17C21.6569 17 23 18.3431 23 20Z" fill="#2E3A59"/>
<path fill-rule="evenodd" clip-rule="evenodd" d="M5.64453 14.8644L8.37469 10.1356C8.72714 9.52516 9.45711 9.24247 10.1288 9.45633L12.8842 10.3336C13.2519 10.0633 13.6334 9.81525 14.0265 9.59017C14.401 9.37482 14.7882 9.17909 15.1867 9.0044L15.8046 6.17946C15.9553 5.49083 16.5651 5 17.27 5H22.7303C23.4352 5 24.045 5.49083 24.1956 6.17946L24.8136 9.0044C25.2364 9.18976 25.6465 9.39881 26.0422 9.62985C26.4111 9.84431 26.7695 10.0791 27.1157 10.3336L29.8712 9.45633C30.5429 9.24247 31.2728 9.52516 31.6253 10.1356L34.3554 14.8644C34.7079 15.4749 34.5877 16.2484 34.0667 16.7232L31.9292 18.6708C31.9783 19.1132 32.0023 19.5564 32.002 19.9983C32.0025 20.4413 31.9784 20.8857 31.9292 21.3292L34.0667 23.2769C34.5877 23.7516 34.7079 24.5252 34.3554 25.1356L31.6253 29.8644C31.2728 30.4749 30.5429 30.7576 29.8712 30.5437L27.1157 29.6664C26.7653 29.9241 26.4023 30.1615 26.0287 30.378C25.6372 30.6059 25.2316 30.8123 24.8136 30.9956L24.1956 33.8205C24.045 34.5092 23.4352 35 22.7303 35H17.27C16.5651 35 15.9553 34.5092 15.8046 33.8205L15.1867 30.9956C14.7928 30.8229 14.41 30.6297 14.0396 30.4173C13.6419 30.1903 13.256 29.9398 12.8842 29.6664L10.1288 30.5437C9.45711 30.7576 8.72714 30.4749 8.37468 29.8644L5.64453 25.1356C5.29207 24.5252 5.41224 23.7516 5.93329 23.2769L8.07079 21.3292C8.02166 20.8862 7.99758 20.4424 7.99799 20C7.99758 19.5575 8.02166 19.1138 8.07079 18.6708L5.93329 16.7232C5.41224 16.2484 5.29208 15.4749 5.64453 14.8644ZM21.5229 8L22.2095 11.1384L23.6091 11.752C23.9256 11.8907 24.2328 12.0473 24.5295 12.2206L24.5343 12.2234C24.8109 12.3841 25.0794 12.56 25.3385 12.7505L26.5697 13.6559L29.6309 12.6812L31.1537 15.3188L28.779 17.4826L28.9475 19.0014C28.9842 19.3327 29.0023 19.6647 29.002 19.996L29.002 20.0016C29.0023 20.3337 28.9843 20.6665 28.9475 20.9986L28.779 22.5175L31.1537 24.6812L29.6309 27.3188L26.5697 26.3442L25.3385 27.2495C25.0762 27.4424 24.8043 27.6202 24.5242 27.7826L24.5194 27.7854C24.2258 27.9562 23.922 28.1109 23.6091 28.248L22.2095 28.8616L21.5229 32H18.4773L17.7908 28.8616L16.3912 28.248C16.0963 28.1188 15.8096 27.9741 15.5319 27.8148L15.527 27.812C15.2288 27.6418 14.9397 27.4541 14.6615 27.2495L13.4303 26.3442L10.3691 27.3188L8.84628 24.6812L11.2209 22.5175L11.0525 20.9986C11.0157 20.667 10.9977 20.3345 10.998 20.0028L10.998 19.9972C10.9977 19.6655 11.0157 19.3331 11.0525 19.0015L11.2209 17.4826L8.84628 15.3188L10.3691 12.6812L13.4303 13.6559L14.6615 12.7505C14.9367 12.5482 15.2225 12.3624 15.5172 12.1936L15.5221 12.1908C15.8028 12.0293 16.0929 11.8827 16.3912 11.752L17.7908 11.1384L18.4773 8H21.5229Z" fill="#2E3A59"/>
</g>
</g>
</svg>
