<svg width="400" height="209" viewBox="0 0 400 209" fill="none" xmlns="http://www.w3.org/2000/svg">
<g filter="url(#filter0_d)">
<rect width="368" height="81" transform="translate(14 40)" fill="white"/>
<path d="M14 56C14 47.1634 21.1634 40 30 40H366C374.837 40 382 47.1634 382 56V105C382 113.837 374.837 121 366 121H30C21.1634 121 14 113.837 14 105V56Z" fill="url(#paint0_linear)"/>
<path d="M351.961 68.0023L345.922 71.9819C344.436 72.9603 342.406 72.5504 341.424 71.0696C340.442 69.5889 340.853 67.566 342.339 66.5877L348.377 62.6081C349.864 61.6297 351.894 62.0396 352.876 63.5204C353.858 65.0011 353.447 67.024 351.961 68.0023Z" fill="#FACEA7"/>
<path d="M342.366 94.6165C343.706 107.838 335.306 110.958 327.662 111.183C316.143 111.526 309.07 90.7031 312.096 87.7019C312.772 87.0276 313.874 87.3185 316.7 85.9963C318.89 84.9651 320.284 83.8281 320.867 83.3786C323.163 81.6334 332.293 75.8689 337.668 78.4338C342.499 80.7343 341.808 89.1694 342.366 94.6165Z" fill="#FACEA7"/>
<path d="M338.119 93.1754C337.044 99.4687 332.094 107.15 325.565 107.348C315.732 107.639 309.694 89.8173 312.268 87.2656C312.839 86.6971 313.781 86.9483 316.196 85.798C318.067 84.9122 319.248 83.9471 319.766 83.5637C321.73 82.0697 329.52 77.1382 334.112 79.3329C338.239 81.2896 338.916 88.5612 338.119 93.1754Z" fill="#F8BE91"/>
<path d="M315.121 107.838C312.958 107.838 309.229 106.542 309.229 102.417V80.7344C309.229 78.6058 310.994 76.8606 313.157 76.8606C315.32 76.8606 317.085 78.6058 317.085 80.7344V102.417C317.085 104.546 315.121 107.838 315.121 107.838Z" fill="#FACEA7"/>
<path d="M317.085 110.125C320.186 110.125 322.699 106.946 322.699 103.025C322.699 99.1042 320.186 95.9255 317.085 95.9255C313.985 95.9255 311.472 99.1042 311.472 103.025C311.472 106.946 313.985 110.125 317.085 110.125Z" fill="#FACEA7"/>
<path d="M339.898 107.838H312.733V116.524H339.898V107.838Z" fill="#FFB600"/>
<path d="M339.898 115.242H312.733V115.691H339.898V115.242Z" fill="#ECECEC"/>
<path d="M313.555 102.417V80.7344C313.555 79.3858 314.259 78.2092 315.32 77.5084C314.697 77.0986 313.953 76.8606 313.157 76.8606C310.994 76.8606 309.229 78.6058 309.229 80.7344V102.417C309.229 106.542 312.958 107.838 315.121 107.838C315.121 107.838 315.387 107.388 315.732 106.701C314.511 105.868 313.555 104.506 313.555 102.417Z" fill="#F8BE91"/>
<path d="M339.898 108.869H312.733V109.319H339.898V108.869Z" fill="#ECECEC"/>
<path d="M309.813 84.7272H309.216V84.476H309.813C311.432 84.476 312.759 83.1538 312.759 81.5409V79.5709H309.216V79.3197H313.011V81.5541C313.025 83.2993 311.578 84.7272 309.813 84.7272Z" fill="#FCDBBF"/>
<path d="M344.224 106.145L317.882 106.132C317.085 106.132 316.435 105.484 316.435 104.691L316.462 54.2656C316.462 53.4723 317.112 52.8245 317.908 52.8245L344.25 52.8377C345.047 52.8377 345.697 53.4855 345.697 54.2788L345.67 104.704C345.67 105.498 345.02 106.145 344.224 106.145Z" fill="#2A94F4"/>
<path d="M343.507 99.4554L318.598 99.4422C318.505 99.4422 318.426 99.3628 318.426 99.2703L318.452 56.6321C318.452 56.5395 318.532 56.4602 318.625 56.4602L343.534 56.4734C343.627 56.4734 343.706 56.5528 343.706 56.6453L343.68 99.2835C343.693 99.3761 343.613 99.4554 343.507 99.4554Z" fill="white"/>
<path d="M334.934 55.0985H326.494C326.229 55.0985 326.016 54.887 326.016 54.6226C326.016 54.3581 326.229 54.1466 326.494 54.1466H334.934C335.2 54.1466 335.412 54.3581 335.412 54.6226C335.425 54.887 335.2 55.1117 334.934 55.0985Z" fill="#CDEAFB"/>
<path d="M336.328 55.1117C336.062 55.1117 335.85 54.9002 335.85 54.6358C335.85 54.3713 336.062 54.1598 336.328 54.1598C336.593 54.1598 336.805 54.3713 336.805 54.6358C336.805 54.887 336.593 55.1117 336.328 55.1117Z" fill="#CDEAFB"/>
<path d="M348.032 86.9484L346.148 88.1912C344.662 89.1695 342.631 88.7597 341.649 87.2789C340.667 85.7981 341.079 83.7753 342.565 82.7969L344.449 81.5541C345.936 80.5758 347.966 80.9856 348.948 82.4664C349.93 83.9604 349.519 85.97 348.032 86.9484Z" fill="#FACEA7"/>
<path d="M348.948 82.4664C348.922 82.4267 348.895 82.4003 348.868 82.3606C349.598 83.5769 349.24 85.1767 348.046 85.97L345.232 87.8209C344.038 88.6142 342.419 88.3101 341.57 87.1731C341.596 87.2128 341.609 87.2524 341.636 87.2789C342.618 88.7596 344.648 89.1695 346.135 88.1911L348.019 86.9483C349.519 85.97 349.93 83.9604 348.948 82.4664Z" fill="#F8BE91"/>
<path d="M344.755 87.5169C344.701 87.5169 344.662 87.5169 344.609 87.5037C344.343 87.464 344.104 87.3186 343.945 87.1071L342.472 85.0578C342.167 84.6347 342.246 84.0398 342.658 83.7092L343.6 82.9688C344.038 82.6251 344.582 82.4797 345.139 82.559C345.723 82.6383 346.254 82.9688 346.612 83.4712C347.342 84.4761 347.17 85.8907 346.241 86.6179L345.352 87.3186C345.193 87.4376 344.98 87.5169 344.755 87.5169ZM344.157 86.9616C344.277 87.1203 344.449 87.2261 344.648 87.2657C344.847 87.2922 345.047 87.2393 345.206 87.1203L346.095 86.4196C346.918 85.7717 347.064 84.5157 346.427 83.6167C346.108 83.1672 345.644 82.8763 345.126 82.8102C344.648 82.7441 344.157 82.8763 343.786 83.1672L342.844 83.9075C342.538 84.1455 342.472 84.595 342.698 84.9124L344.157 86.9616Z" fill="#FCDBBF"/>
<path d="M348.683 93.0961L346.838 93.9952C345.392 94.6959 343.627 94.101 342.923 92.6598C342.22 91.2187 342.817 89.4603 344.264 88.7596L346.108 87.8606C347.555 87.1599 349.32 87.7548 350.023 89.1959C350.74 90.637 350.142 92.3954 348.683 93.0961Z" fill="#FACEA7"/>
<path d="M350.036 89.1959C350.023 89.1562 349.996 89.1298 349.983 89.0901C350.487 90.2668 349.983 91.655 348.815 92.2235L346.082 93.5456C344.914 94.1141 343.507 93.6514 342.883 92.5276C342.897 92.5672 342.91 92.5937 342.923 92.6334C343.627 94.0745 345.392 94.6826 346.838 93.9687L348.683 93.0697C350.142 92.3954 350.74 90.637 350.036 89.1959Z" fill="#F8BE91"/>
<path d="M345.816 93.2416C345.737 93.2416 345.657 93.2284 345.577 93.2019C345.338 93.1358 345.139 92.9772 345.02 92.7524L343.945 90.7428C343.719 90.3197 343.865 89.7909 344.277 89.5397L345.206 88.9844C345.644 88.72 346.148 88.6539 346.639 88.7993C347.157 88.9447 347.594 89.3017 347.86 89.7909C348.391 90.7825 348.072 92.0385 347.143 92.5805L346.267 93.0962C346.135 93.2019 345.975 93.2416 345.816 93.2416ZM346.148 88.9976C345.869 88.9976 345.591 89.0769 345.338 89.2224L344.41 89.7777C344.104 89.9495 343.998 90.3329 344.171 90.637L345.246 92.6466C345.325 92.8053 345.471 92.9243 345.644 92.964C345.816 93.0168 346.002 92.9904 346.148 92.8978L347.024 92.3822C347.833 91.9063 348.112 90.7957 347.648 89.9231C347.409 89.4868 347.037 89.1827 346.586 89.0505C346.427 89.0108 346.281 88.9976 346.148 88.9976Z" fill="#FCDBBF"/>
<path d="M340.561 99.4423H321.252V91.4567C321.252 87.8209 324.212 84.8594 327.874 84.8594H333.939C337.588 84.8594 340.561 87.8077 340.561 91.4567V99.4423Z" fill="#FFB600"/>
<path d="M347.236 80.3113L345.113 81.5409C343.441 82.5192 341.158 82.1094 340.057 80.6418C338.942 79.1743 339.407 77.1779 341.079 76.2127L343.202 74.9832C344.874 74.0048 347.157 74.4146 348.258 75.8822C349.373 77.3497 348.908 79.3461 347.236 80.3113Z" fill="#FACEA7"/>
<path d="M348.258 75.8823C348.231 75.8426 348.205 75.8162 348.165 75.7765C348.988 76.9796 348.59 78.5662 347.236 79.3462L344.078 81.1839C342.724 81.964 340.906 81.6731 339.964 80.5361C339.99 80.5758 340.017 80.6154 340.043 80.6419C341.158 82.1094 343.427 82.5193 345.1 81.5409L347.223 80.3114C348.908 79.3462 349.373 77.3498 348.258 75.8823Z" fill="#F8BE91"/>
<path d="M343.096 80.8533C343.043 80.8533 343.003 80.8533 342.95 80.8401C342.684 80.8005 342.446 80.655 342.286 80.4435L340.813 78.3942C340.508 77.9711 340.588 77.3762 340.999 77.0457L341.941 76.3053C342.379 75.9615 342.923 75.8161 343.481 75.8954C344.065 75.9747 344.595 76.3053 344.954 76.8077C345.67 77.8125 345.511 79.2271 344.582 79.9543L343.693 80.655C343.534 80.7872 343.321 80.8533 343.096 80.8533ZM342.499 80.2981C342.618 80.4567 342.791 80.5625 342.99 80.6021C343.189 80.6286 343.388 80.5757 343.547 80.4567L344.436 79.756C345.259 79.1082 345.405 77.8521 344.768 76.9531C344.449 76.5036 343.985 76.2127 343.454 76.1466C342.976 76.0805 342.499 76.2127 342.114 76.5036L341.172 77.244C340.866 77.482 340.8 77.9315 341.026 78.2488L342.499 80.2981Z" fill="#FCDBBF"/>
<path d="M330.9 105.167C332.241 105.167 333.329 104.084 333.329 102.748C333.329 101.411 332.241 100.328 330.9 100.328C329.559 100.328 328.472 101.411 328.472 102.748C328.472 104.084 329.559 105.167 330.9 105.167Z" fill="#CDEAFB"/>
<path d="M334.218 85.4676L333.926 78.2489L328.219 78.0902L327.874 86.5518C327.835 87.4772 328.644 87.3054 329.573 87.2657L332.718 87.107C333.594 87.0542 334.257 86.327 334.218 85.4676Z" fill="#FACBB6"/>
<path d="M328.432 79.756L334.125 83.0877L333.926 78.2488L328.432 79.756Z" fill="#F6B7A0"/>
<path d="M340.734 73.1058C340.734 74.2825 339.778 75.2344 338.597 75.2344C337.416 75.2344 336.46 74.2825 336.46 73.1058C336.46 71.9291 337.416 70.9772 338.597 70.9772C339.778 70.9772 340.734 71.9291 340.734 73.1058Z" fill="#FACBB6"/>
<path d="M323.853 75.2344C325.033 75.2344 325.99 74.2814 325.99 73.1058C325.99 71.9302 325.033 70.9772 323.853 70.9772C322.673 70.9772 321.717 71.9302 321.717 73.1058C321.717 74.2814 322.673 75.2344 323.853 75.2344Z" fill="#FACBB6"/>
<path d="M337.867 69.2981C337.867 72.0084 337.469 74.3486 337.084 76.0144C336.699 77.6406 335.611 78.7776 334.085 79.6899L333.806 79.8486C332.174 80.8269 330.104 80.8534 328.445 79.9147C326.786 78.976 325.632 77.7332 325.273 75.988C324.623 72.8149 324.557 69.2981 324.557 69.2981C324.557 69.2981 323.933 62.4495 331.112 62.5817C338.292 62.7272 337.867 69.2981 337.867 69.2981Z" fill="#FACBB6"/>
<path d="M324.942 72.0878C324.942 72.0878 326.454 67.2224 325.353 64.0758C325.366 64.0758 321.133 65.2789 324.942 72.0878Z" fill="#01384F"/>
<path d="M337.602 72.0878C337.602 72.0878 335.691 67.2224 336.792 64.0758C336.779 64.0758 340.734 65.0409 337.602 72.0878Z" fill="#01384F"/>
<path d="M325.671 66.2572C325.671 66.2572 326.879 64.0757 329.055 65.2789C331.232 66.482 333.382 67.6322 337.27 66.6803L336.752 64.0625C336.752 64.0625 331.351 58.3378 325.326 64.0625L325.671 66.2572Z" fill="#01384F"/>
<path d="M325.326 64.0625C325.326 64.0625 325.671 60.0961 331.298 59.7524C336.925 59.4086 338.584 62.3966 338.584 62.3966L337.562 62.5817C337.562 62.5817 339.526 63.4279 340.043 64.2476L338.942 64.631L340.402 65.9267C340.402 65.9267 335.81 67.6983 333.275 66.7464L331.165 63.5733L325.326 64.0625Z" fill="#01384F"/>
<path d="M328.843 84.7668L326.468 84.8065C326.468 84.8065 326.215 87.8077 330.847 87.9531C335.478 88.0986 335.558 84.9916 335.558 84.9916L333.05 84.7668H328.843Z" fill="#FACBB6"/>
<path d="M339.34 81.0517H322.195V63.9832H339.34V81.0517ZM322.42 80.8401H339.115V64.1947H322.42V80.8401Z" fill="#2A94F4"/>
<mask id="mask0" mask-type="alpha" maskUnits="userSpaceOnUse" x="322" y="69" width="18" height="8">
<path d="M339.274 69.4568H322.274V76.7681H339.274V69.4568Z" fill="url(#paint1_linear)"/>
</mask>
<g mask="url(#mask0)">
<path d="M339.274 69.4568H322.274V76.7681H339.274V69.4568Z" fill="#2A94F4"/>
</g>
<path d="M58.6289 72H56.6367V56.6367H51.2109V54.8672H64.0547V56.6367H58.6289V72ZM77.4375 65.5664C77.4375 67.6602 76.9102 69.2969 75.8555 70.4766C74.8008 71.6484 73.3438 72.2344 71.4844 72.2344C70.3359 72.2344 69.3164 71.9648 68.4258 71.4258C67.5352 70.8867 66.8477 70.1133 66.3633 69.1055C65.8789 68.0977 65.6367 66.918 65.6367 65.5664C65.6367 63.4727 66.1602 61.8438 67.207 60.6797C68.2539 59.5078 69.707 58.9219 71.5664 58.9219C73.3633 58.9219 74.7891 59.5195 75.8438 60.7148C76.9062 61.9102 77.4375 63.5273 77.4375 65.5664ZM67.6523 65.5664C67.6523 67.207 67.9805 68.457 68.6367 69.3164C69.293 70.1758 70.2578 70.6055 71.5312 70.6055C72.8047 70.6055 73.7695 70.1797 74.4258 69.3281C75.0898 68.4688 75.4219 67.2148 75.4219 65.5664C75.4219 63.9336 75.0898 62.6953 74.4258 61.8516C73.7695 61 72.7969 60.5742 71.5078 60.5742C70.2344 60.5742 69.2734 60.9922 68.625 61.8281C67.9766 62.6641 67.6523 63.9102 67.6523 65.5664ZM89.6016 70.2773H89.4961C88.5977 71.582 87.2539 72.2344 85.4648 72.2344C83.7852 72.2344 82.4766 71.6602 81.5391 70.5117C80.6094 69.3633 80.1445 67.7305 80.1445 65.6133C80.1445 63.4961 80.6133 61.8516 81.5508 60.6797C82.4883 59.5078 83.793 58.9219 85.4648 58.9219C87.207 58.9219 88.543 59.5547 89.4727 60.8203H89.625L89.543 59.8945L89.4961 58.9922V53.7656H91.4414V72H89.8594L89.6016 70.2773ZM85.7109 70.6055C87.0391 70.6055 88 70.2461 88.5938 69.5273C89.1953 68.8008 89.4961 67.6328 89.4961 66.0234V65.6133C89.4961 63.793 89.1914 62.4961 88.582 61.7227C87.9805 60.9414 87.0156 60.5508 85.6875 60.5508C84.5469 60.5508 83.6719 60.9961 83.0625 61.8867C82.4609 62.7695 82.1602 64.0195 82.1602 65.6367C82.1602 67.2773 82.4609 68.5156 83.0625 69.3516C83.6641 70.1875 84.5469 70.6055 85.7109 70.6055ZM103.477 72L103.09 70.1719H102.996C102.355 70.9766 101.715 71.5234 101.074 71.8125C100.441 72.0938 99.6484 72.2344 98.6953 72.2344C97.4219 72.2344 96.4219 71.9062 95.6953 71.25C94.9766 70.5938 94.6172 69.6602 94.6172 68.4492C94.6172 65.8555 96.6914 64.4961 100.84 64.3711L103.02 64.3008V63.5039C103.02 62.4961 102.801 61.7539 102.363 61.2773C101.934 60.793 101.242 60.5508 100.289 60.5508C99.2188 60.5508 98.0078 60.8789 96.6562 61.5352L96.0586 60.0469C96.6914 59.7031 97.3828 59.4336 98.1328 59.2383C98.8906 59.043 99.6484 58.9453 100.406 58.9453C101.938 58.9453 103.07 59.2852 103.805 59.9648C104.547 60.6445 104.918 61.7344 104.918 63.2344V72H103.477ZM99.082 70.6289C100.293 70.6289 101.242 70.2969 101.93 69.6328C102.625 68.9688 102.973 68.0391 102.973 66.8438V65.6836L101.027 65.7656C99.4805 65.8203 98.3633 66.0625 97.6758 66.4922C96.9961 66.9141 96.6562 67.5742 96.6562 68.4727C96.6562 69.1758 96.8672 69.7109 97.2891 70.0781C97.7188 70.4453 98.3164 70.6289 99.082 70.6289ZM106.898 59.1562H108.984L111.797 66.4805C112.414 68.1523 112.797 69.3594 112.945 70.1016H113.039C113.141 69.7031 113.352 69.0234 113.672 68.0625C114 67.0938 115.062 64.125 116.859 59.1562H118.945L113.426 73.7812C112.879 75.2266 112.238 76.25 111.504 76.8516C110.777 77.4609 109.883 77.7656 108.82 77.7656C108.227 77.7656 107.641 77.6992 107.062 77.5664V76.0078C107.492 76.1016 107.973 76.1484 108.504 76.1484C109.84 76.1484 110.793 75.3984 111.363 73.8984L112.078 72.0703L106.898 59.1562ZM132.398 72.2344C130.539 72.2344 129.098 71.6641 128.074 70.5234C127.059 69.375 126.551 67.7539 126.551 65.6602C126.551 63.5117 127.066 61.8516 128.098 60.6797C129.137 59.5078 130.613 58.9219 132.527 58.9219C133.145 58.9219 133.762 58.9883 134.379 59.1211C134.996 59.2539 135.48 59.4102 135.832 59.5898L135.234 61.2422C134.805 61.0703 134.336 60.9297 133.828 60.8203C133.32 60.7031 132.871 60.6445 132.48 60.6445C129.871 60.6445 128.566 62.3086 128.566 65.6367C128.566 67.2148 128.883 68.4258 129.516 69.2695C130.156 70.1133 131.102 70.5352 132.352 70.5352C133.422 70.5352 134.52 70.3047 135.645 69.8438V71.5664C134.785 72.0117 133.703 72.2344 132.398 72.2344ZM147.492 72V63.6914C147.492 62.6445 147.254 61.8633 146.777 61.3477C146.301 60.832 145.555 60.5742 144.539 60.5742C143.188 60.5742 142.199 60.9414 141.574 61.6758C140.957 62.4102 140.648 63.6133 140.648 65.2852V72H138.703V53.7656H140.648V59.2852C140.648 59.9492 140.617 60.5 140.555 60.9375H140.672C141.055 60.3203 141.598 59.8359 142.301 59.4844C143.012 59.125 143.82 58.9453 144.727 58.9453C146.297 58.9453 147.473 59.3203 148.254 60.0703C149.043 60.8125 149.438 61.9961 149.438 63.6211V72H147.492ZM161.344 72L160.957 70.1719H160.863C160.223 70.9766 159.582 71.5234 158.941 71.8125C158.309 72.0938 157.516 72.2344 156.562 72.2344C155.289 72.2344 154.289 71.9062 153.562 71.25C152.844 70.5938 152.484 69.6602 152.484 68.4492C152.484 65.8555 154.559 64.4961 158.707 64.3711L160.887 64.3008V63.5039C160.887 62.4961 160.668 61.7539 160.23 61.2773C159.801 60.793 159.109 60.5508 158.156 60.5508C157.086 60.5508 155.875 60.8789 154.523 61.5352L153.926 60.0469C154.559 59.7031 155.25 59.4336 156 59.2383C156.758 59.043 157.516 58.9453 158.273 58.9453C159.805 58.9453 160.938 59.2852 161.672 59.9648C162.414 60.6445 162.785 61.7344 162.785 63.2344V72H161.344ZM156.949 70.6289C158.16 70.6289 159.109 70.2969 159.797 69.6328C160.492 68.9688 160.84 68.0391 160.84 66.8438V65.6836L158.895 65.7656C157.348 65.8203 156.23 66.0625 155.543 66.4922C154.863 66.9141 154.523 67.5742 154.523 68.4727C154.523 69.1758 154.734 69.7109 155.156 70.0781C155.586 70.4453 156.184 70.6289 156.949 70.6289ZM183.176 72V63.6445C183.176 62.6211 182.957 61.8555 182.52 61.3477C182.082 60.832 181.402 60.5742 180.48 60.5742C179.27 60.5742 178.375 60.9219 177.797 61.6172C177.219 62.3125 176.93 63.3828 176.93 64.8281V72H174.984V63.6445C174.984 62.6211 174.766 61.8555 174.328 61.3477C173.891 60.832 173.207 60.5742 172.277 60.5742C171.059 60.5742 170.164 60.9414 169.594 61.6758C169.031 62.4023 168.75 63.5977 168.75 65.2617V72H166.805V59.1562H168.387L168.703 60.9141H168.797C169.164 60.2891 169.68 59.8008 170.344 59.4492C171.016 59.0977 171.766 58.9219 172.594 58.9219C174.602 58.9219 175.914 59.6484 176.531 61.1016H176.625C177.008 60.4297 177.562 59.8984 178.289 59.5078C179.016 59.1172 179.844 58.9219 180.773 58.9219C182.227 58.9219 183.312 59.2969 184.031 60.0469C184.758 60.7891 185.121 61.9805 185.121 63.6211V72H183.176ZM195.117 72.2344C194.281 72.2344 193.516 72.082 192.82 71.7773C192.133 71.4648 191.555 70.9883 191.086 70.3477H190.945C191.039 71.0977 191.086 71.8086 191.086 72.4805V77.7656H189.141V59.1562H190.723L190.992 60.9141H191.086C191.586 60.2109 192.168 59.7031 192.832 59.3906C193.496 59.0781 194.258 58.9219 195.117 58.9219C196.82 58.9219 198.133 59.5039 199.055 60.668C199.984 61.832 200.449 63.4648 200.449 65.5664C200.449 67.6758 199.977 69.3164 199.031 70.4883C198.094 71.6523 196.789 72.2344 195.117 72.2344ZM194.836 60.5742C193.523 60.5742 192.574 60.9375 191.988 61.6641C191.402 62.3906 191.102 63.5469 191.086 65.1328V65.5664C191.086 67.3711 191.387 68.6641 191.988 69.4453C192.59 70.2188 193.555 70.6055 194.883 70.6055C195.992 70.6055 196.859 70.1562 197.484 69.2578C198.117 68.3594 198.434 67.1211 198.434 65.543C198.434 63.9414 198.117 62.7148 197.484 61.8633C196.859 61.0039 195.977 60.5742 194.836 60.5742ZM205.805 72H203.859V59.1562H205.805V72ZM203.695 55.6758C203.695 55.2305 203.805 54.9062 204.023 54.7031C204.242 54.4922 204.516 54.3867 204.844 54.3867C205.156 54.3867 205.426 54.4922 205.652 54.7031C205.879 54.9141 205.992 55.2383 205.992 55.6758C205.992 56.1133 205.879 56.4414 205.652 56.6602C205.426 56.8711 205.156 56.9766 204.844 56.9766C204.516 56.9766 204.242 56.8711 204.023 56.6602C203.805 56.4414 203.695 56.1133 203.695 55.6758ZM221.016 65.5664C221.016 67.6602 220.488 69.2969 219.434 70.4766C218.379 71.6484 216.922 72.2344 215.062 72.2344C213.914 72.2344 212.895 71.9648 212.004 71.4258C211.113 70.8867 210.426 70.1133 209.941 69.1055C209.457 68.0977 209.215 66.918 209.215 65.5664C209.215 63.4727 209.738 61.8438 210.785 60.6797C211.832 59.5078 213.285 58.9219 215.145 58.9219C216.941 58.9219 218.367 59.5195 219.422 60.7148C220.484 61.9102 221.016 63.5273 221.016 65.5664ZM211.23 65.5664C211.23 67.207 211.559 68.457 212.215 69.3164C212.871 70.1758 213.836 70.6055 215.109 70.6055C216.383 70.6055 217.348 70.1797 218.004 69.3281C218.668 68.4688 219 67.2148 219 65.5664C219 63.9336 218.668 62.6953 218.004 61.8516C217.348 61 216.375 60.5742 215.086 60.5742C213.812 60.5742 212.852 60.9922 212.203 61.8281C211.555 62.6641 211.23 63.9102 211.23 65.5664ZM233.227 72V63.6914C233.227 62.6445 232.988 61.8633 232.512 61.3477C232.035 60.832 231.289 60.5742 230.273 60.5742C228.93 60.5742 227.945 60.9375 227.32 61.6641C226.695 62.3906 226.383 63.5898 226.383 65.2617V72H224.438V59.1562H226.02L226.336 60.9141H226.43C226.828 60.2812 227.387 59.793 228.105 59.4492C228.824 59.0977 229.625 58.9219 230.508 58.9219C232.055 58.9219 233.219 59.2969 234 60.0469C234.781 60.7891 235.172 61.9805 235.172 63.6211V72H233.227ZM247.465 68.4961C247.465 69.6914 247.02 70.6133 246.129 71.2617C245.238 71.9102 243.988 72.2344 242.379 72.2344C240.676 72.2344 239.348 71.9648 238.395 71.4258V69.6211C239.012 69.9336 239.672 70.1797 240.375 70.3594C241.086 70.5391 241.77 70.6289 242.426 70.6289C243.441 70.6289 244.223 70.4688 244.77 70.1484C245.316 69.8203 245.59 69.3242 245.59 68.6602C245.59 68.1602 245.371 67.7344 244.934 67.3828C244.504 67.0234 243.66 66.6016 242.402 66.1172C241.207 65.6719 240.355 65.2852 239.848 64.957C239.348 64.6211 238.973 64.2422 238.723 63.8203C238.48 63.3984 238.359 62.8945 238.359 62.3086C238.359 61.2617 238.785 60.4375 239.637 59.8359C240.488 59.2266 241.656 58.9219 243.141 58.9219C244.523 58.9219 245.875 59.2031 247.195 59.7656L246.504 61.3477C245.215 60.8164 244.047 60.5508 243 60.5508C242.078 60.5508 241.383 60.6953 240.914 60.9844C240.445 61.2734 240.211 61.6719 240.211 62.1797C240.211 62.5234 240.297 62.8164 240.469 63.0586C240.648 63.3008 240.934 63.5312 241.324 63.75C241.715 63.9688 242.465 64.2852 243.574 64.6992C245.098 65.2539 246.125 65.8125 246.656 66.375C247.195 66.9375 247.465 67.6445 247.465 68.4961ZM259.43 72V63.6914C259.43 62.6445 259.191 61.8633 258.715 61.3477C258.238 60.832 257.492 60.5742 256.477 60.5742C255.125 60.5742 254.137 60.9414 253.512 61.6758C252.895 62.4102 252.586 63.6133 252.586 65.2852V72H250.641V53.7656H252.586V59.2852C252.586 59.9492 252.555 60.5 252.492 60.9375H252.609C252.992 60.3203 253.535 59.8359 254.238 59.4844C254.949 59.125 255.758 58.9453 256.664 58.9453C258.234 58.9453 259.41 59.3203 260.191 60.0703C260.98 60.8125 261.375 61.9961 261.375 63.6211V72H259.43ZM267.328 72H265.383V59.1562H267.328V72ZM265.219 55.6758C265.219 55.2305 265.328 54.9062 265.547 54.7031C265.766 54.4922 266.039 54.3867 266.367 54.3867C266.68 54.3867 266.949 54.4922 267.176 54.7031C267.402 54.9141 267.516 55.2383 267.516 55.6758C267.516 56.1133 267.402 56.4414 267.176 56.6602C266.949 56.8711 266.68 56.9766 266.367 56.9766C266.039 56.9766 265.766 56.8711 265.547 56.6602C265.328 56.4414 265.219 56.1133 265.219 55.6758ZM277.43 72.2344C276.594 72.2344 275.828 72.082 275.133 71.7773C274.445 71.4648 273.867 70.9883 273.398 70.3477H273.258C273.352 71.0977 273.398 71.8086 273.398 72.4805V77.7656H271.453V59.1562H273.035L273.305 60.9141H273.398C273.898 60.2109 274.48 59.7031 275.145 59.3906C275.809 59.0781 276.57 58.9219 277.43 58.9219C279.133 58.9219 280.445 59.5039 281.367 60.668C282.297 61.832 282.762 63.4648 282.762 65.5664C282.762 67.6758 282.289 69.3164 281.344 70.4883C280.406 71.6523 279.102 72.2344 277.43 72.2344ZM277.148 60.5742C275.836 60.5742 274.887 60.9375 274.301 61.6641C273.715 62.3906 273.414 63.5469 273.398 65.1328V65.5664C273.398 67.3711 273.699 68.6641 274.301 69.4453C274.902 70.2188 275.867 70.6055 277.195 70.6055C278.305 70.6055 279.172 70.1562 279.797 69.2578C280.43 68.3594 280.746 67.1211 280.746 65.543C280.746 63.9414 280.43 62.7148 279.797 61.8633C279.172 61.0039 278.289 60.5742 277.148 60.5742Z" fill="white"/>
<path d="M57.334 95.7168C57.334 97.2051 57.0938 98.3105 56.6133 99.0332C56.1367 99.7559 55.4062 100.117 54.4219 100.117C53.4688 100.117 52.7461 99.7441 52.2539 98.998C51.7617 98.252 51.5156 97.1582 51.5156 95.7168C51.5156 94.2051 51.7539 93.0918 52.2305 92.377C52.7109 91.6582 53.4414 91.2988 54.4219 91.2988C55.3789 91.2988 56.1035 91.6738 56.5957 92.4238C57.0879 93.1738 57.334 94.2715 57.334 95.7168ZM52.9102 95.7168C52.9102 96.8848 53.0293 97.7188 53.2676 98.2188C53.5098 98.7188 53.8945 98.9688 54.4219 98.9688C54.9492 98.9688 55.334 98.7148 55.5762 98.207C55.8223 97.6992 55.9453 96.8691 55.9453 95.7168C55.9453 94.5684 55.8223 93.7383 55.5762 93.2266C55.334 92.7109 54.9492 92.4531 54.4219 92.4531C53.8945 92.4531 53.5098 92.7051 53.2676 93.209C53.0293 93.7129 52.9102 94.5488 52.9102 95.7168ZM63.8672 93.4023C63.8672 93.9453 63.709 94.3984 63.3926 94.7617C63.0762 95.1211 62.6309 95.3633 62.0566 95.4883V95.5352C62.7441 95.6211 63.2598 95.8359 63.6035 96.1797C63.9473 96.5195 64.1191 96.9727 64.1191 97.5391C64.1191 98.3633 63.8281 99 63.2461 99.4492C62.6641 99.8945 61.8359 100.117 60.7617 100.117C59.8125 100.117 59.0117 99.9629 58.3594 99.6543V98.4297C58.7227 98.6094 59.1074 98.748 59.5137 98.8457C59.9199 98.9434 60.3105 98.9922 60.6855 98.9922C61.3496 98.9922 61.8457 98.8691 62.1738 98.623C62.502 98.377 62.666 97.9961 62.666 97.4805C62.666 97.0234 62.4844 96.6875 62.1211 96.4727C61.7578 96.2578 61.1875 96.1504 60.4102 96.1504H59.666V95.0312H60.4219C61.7891 95.0312 62.4727 94.5586 62.4727 93.6133C62.4727 93.2461 62.3535 92.9629 62.1152 92.7637C61.877 92.5645 61.5254 92.4648 61.0605 92.4648C60.7363 92.4648 60.4238 92.5117 60.123 92.6055C59.8223 92.6953 59.4668 92.873 59.0566 93.1387L58.3828 92.1777C59.168 91.5996 60.0801 91.3105 61.1191 91.3105C61.9824 91.3105 62.6562 91.4961 63.1406 91.8672C63.625 92.2383 63.8672 92.75 63.8672 93.4023ZM65.4902 99.2676C65.4902 98.9824 65.5645 98.7637 65.7129 98.6113C65.8613 98.459 66.0762 98.3828 66.3574 98.3828C66.6426 98.3828 66.8594 98.4629 67.0078 98.623C67.1562 98.7793 67.2305 98.9941 67.2305 99.2676C67.2305 99.5449 67.1543 99.7656 67.002 99.9297C66.8535 100.09 66.6387 100.17 66.3574 100.17C66.0762 100.17 65.8613 100.09 65.7129 99.9297C65.5645 99.7695 65.4902 99.5488 65.4902 99.2676ZM65.4902 94.2637C65.4902 93.6738 65.7793 93.3789 66.3574 93.3789C66.6504 93.3789 66.8691 93.457 67.0137 93.6133C67.1582 93.7695 67.2305 93.9863 67.2305 94.2637C67.2305 94.541 67.1543 94.7617 67.002 94.9258C66.8535 95.0859 66.6387 95.166 66.3574 95.166C66.0762 95.166 65.8613 95.0859 65.7129 94.9258C65.5645 94.7656 65.4902 94.5449 65.4902 94.2637ZM74.3496 95.7168C74.3496 97.2051 74.1094 98.3105 73.6289 99.0332C73.1523 99.7559 72.4219 100.117 71.4375 100.117C70.4844 100.117 69.7617 99.7441 69.2695 98.998C68.7773 98.252 68.5312 97.1582 68.5312 95.7168C68.5312 94.2051 68.7695 93.0918 69.2461 92.377C69.7266 91.6582 70.457 91.2988 71.4375 91.2988C72.3945 91.2988 73.1191 91.6738 73.6113 92.4238C74.1035 93.1738 74.3496 94.2715 74.3496 95.7168ZM69.9258 95.7168C69.9258 96.8848 70.0449 97.7188 70.2832 98.2188C70.5254 98.7188 70.9102 98.9688 71.4375 98.9688C71.9648 98.9688 72.3496 98.7148 72.5918 98.207C72.8379 97.6992 72.9609 96.8691 72.9609 95.7168C72.9609 94.5684 72.8379 93.7383 72.5918 93.2266C72.3496 92.7109 71.9648 92.4531 71.4375 92.4531C70.9102 92.4531 70.5254 92.7051 70.2832 93.209C70.0449 93.7129 69.9258 94.5488 69.9258 95.7168ZM80.8828 93.4023C80.8828 93.9453 80.7246 94.3984 80.4082 94.7617C80.0918 95.1211 79.6465 95.3633 79.0723 95.4883V95.5352C79.7598 95.6211 80.2754 95.8359 80.6191 96.1797C80.9629 96.5195 81.1348 96.9727 81.1348 97.5391C81.1348 98.3633 80.8438 99 80.2617 99.4492C79.6797 99.8945 78.8516 100.117 77.7773 100.117C76.8281 100.117 76.0273 99.9629 75.375 99.6543V98.4297C75.7383 98.6094 76.123 98.748 76.5293 98.8457C76.9355 98.9434 77.3262 98.9922 77.7012 98.9922C78.3652 98.9922 78.8613 98.8691 79.1895 98.623C79.5176 98.377 79.6816 97.9961 79.6816 97.4805C79.6816 97.0234 79.5 96.6875 79.1367 96.4727C78.7734 96.2578 78.2031 96.1504 77.4258 96.1504H76.6816V95.0312H77.4375C78.8047 95.0312 79.4883 94.5586 79.4883 93.6133C79.4883 93.2461 79.3691 92.9629 79.1309 92.7637C78.8926 92.5645 78.541 92.4648 78.0762 92.4648C77.752 92.4648 77.4395 92.5117 77.1387 92.6055C76.8379 92.6953 76.4824 92.873 76.0723 93.1387L75.3984 92.1777C76.1836 91.5996 77.0957 91.3105 78.1348 91.3105C78.998 91.3105 79.6719 91.4961 80.1562 91.8672C80.6406 92.2383 80.8828 92.75 80.8828 93.4023ZM82.5059 99.2676C82.5059 98.9824 82.5801 98.7637 82.7285 98.6113C82.877 98.459 83.0918 98.3828 83.373 98.3828C83.6582 98.3828 83.875 98.4629 84.0234 98.623C84.1719 98.7793 84.2461 98.9941 84.2461 99.2676C84.2461 99.5449 84.1699 99.7656 84.0176 99.9297C83.8691 100.09 83.6543 100.17 83.373 100.17C83.0918 100.17 82.877 100.09 82.7285 99.9297C82.5801 99.7695 82.5059 99.5488 82.5059 99.2676ZM82.5059 94.2637C82.5059 93.6738 82.7949 93.3789 83.373 93.3789C83.666 93.3789 83.8848 93.457 84.0293 93.6133C84.1738 93.7695 84.2461 93.9863 84.2461 94.2637C84.2461 94.541 84.1699 94.7617 84.0176 94.9258C83.8691 95.0859 83.6543 95.166 83.373 95.166C83.0918 95.166 82.877 95.0859 82.7285 94.9258C82.5801 94.7656 82.5059 94.5449 82.5059 94.2637ZM89.6016 100H88.2246V94.4688C88.2246 93.8086 88.2402 93.2852 88.2715 92.8984C88.1816 92.9922 88.0703 93.0957 87.9375 93.209C87.8086 93.3223 87.3711 93.6816 86.625 94.2871L85.9336 93.4141L88.4531 91.4336H89.6016V100ZM98.2207 100H92.4141V98.957L94.623 96.7363C95.2754 96.0684 95.707 95.5957 95.918 95.3184C96.1328 95.0371 96.2891 94.7734 96.3867 94.5273C96.4844 94.2812 96.5332 94.0176 96.5332 93.7363C96.5332 93.3496 96.416 93.0449 96.1816 92.8223C95.9512 92.5996 95.6309 92.4883 95.2207 92.4883C94.8926 92.4883 94.5742 92.5488 94.2656 92.6699C93.9609 92.791 93.6074 93.0098 93.2051 93.3262L92.4609 92.418C92.9375 92.0156 93.4004 91.7305 93.8496 91.5625C94.2988 91.3945 94.7773 91.3105 95.2852 91.3105C96.082 91.3105 96.7207 91.5195 97.2012 91.9375C97.6816 92.3516 97.9219 92.9102 97.9219 93.6133C97.9219 94 97.8516 94.3672 97.7109 94.7148C97.5742 95.0625 97.3613 95.4219 97.0723 95.793C96.7871 96.1602 96.3105 96.6582 95.6426 97.2871L94.1543 98.7285V98.7871H98.2207V100ZM108.305 100H106.922V96.0039C106.922 95.5078 106.828 95.1387 106.641 94.8965C106.453 94.6504 106.16 94.5273 105.762 94.5273C105.23 94.5273 104.84 94.7012 104.59 95.0488C104.344 95.3926 104.221 95.9668 104.221 96.7715V100H102.844V93.5195H103.922L104.115 94.3691H104.186C104.365 94.0605 104.625 93.8223 104.965 93.6543C105.309 93.4863 105.686 93.4023 106.096 93.4023C107.092 93.4023 107.752 93.7422 108.076 94.4219H108.17C108.361 94.1016 108.631 93.8516 108.979 93.6719C109.326 93.4922 109.725 93.4023 110.174 93.4023C110.947 93.4023 111.51 93.5977 111.861 93.9883C112.217 94.3789 112.395 94.9746 112.395 95.7754V100H111.018V96.0039C111.018 95.5078 110.922 95.1387 110.73 94.8965C110.543 94.6504 110.25 94.5273 109.852 94.5273C109.316 94.5273 108.924 94.6953 108.674 95.0312C108.428 95.3633 108.305 95.875 108.305 96.5664V100ZM115.693 100H114.316V93.5195H115.693V100ZM114.234 91.8027C114.234 91.5566 114.301 91.3672 114.434 91.2344C114.57 91.1016 114.764 91.0352 115.014 91.0352C115.256 91.0352 115.443 91.1016 115.576 91.2344C115.713 91.3672 115.781 91.5566 115.781 91.8027C115.781 92.0371 115.713 92.2227 115.576 92.3594C115.443 92.4922 115.256 92.5586 115.014 92.5586C114.764 92.5586 114.57 92.4922 114.434 92.3594C114.301 92.2227 114.234 92.0371 114.234 91.8027ZM123.369 100H121.986V96.0156C121.986 95.5156 121.885 95.1426 121.682 94.8965C121.482 94.6504 121.164 94.5273 120.727 94.5273C120.145 94.5273 119.719 94.6992 119.449 95.043C119.18 95.3867 119.045 95.9629 119.045 96.7715V100H117.668V93.5195H118.746L118.939 94.3691H119.01C119.205 94.0605 119.482 93.8223 119.842 93.6543C120.201 93.4863 120.6 93.4023 121.037 93.4023C122.592 93.4023 123.369 94.1934 123.369 95.7754V100ZM129.855 100L129.662 99.1504H129.592C129.4 99.4512 129.127 99.6875 128.771 99.8594C128.42 100.031 128.018 100.117 127.564 100.117C126.779 100.117 126.193 99.9219 125.807 99.5312C125.42 99.1406 125.227 98.5488 125.227 97.7559V93.5195H126.615V97.5156C126.615 98.0117 126.717 98.3848 126.92 98.6348C127.123 98.8809 127.441 99.0039 127.875 99.0039C128.453 99.0039 128.877 98.832 129.146 98.4883C129.42 98.1406 129.557 97.5605 129.557 96.748V93.5195H130.939V100H129.855ZM135.316 99.0039C135.652 99.0039 135.988 98.9512 136.324 98.8457V99.8828C136.172 99.9492 135.975 100.004 135.732 100.047C135.494 100.094 135.246 100.117 134.988 100.117C133.684 100.117 133.031 99.4297 133.031 98.0547V94.5625H132.146V93.9531L133.096 93.4492L133.564 92.0781H134.414V93.5195H136.26V94.5625H134.414V98.0312C134.414 98.3633 134.496 98.6094 134.66 98.7695C134.828 98.9258 135.047 99.0039 135.316 99.0039ZM140.455 100.117C139.447 100.117 138.658 99.8242 138.088 99.2383C137.521 98.6484 137.238 97.8379 137.238 96.8066C137.238 95.748 137.502 94.916 138.029 94.3105C138.557 93.7051 139.281 93.4023 140.203 93.4023C141.059 93.4023 141.734 93.6621 142.23 94.1816C142.727 94.7012 142.975 95.416 142.975 96.3262V97.0703H138.656C138.676 97.6992 138.846 98.1836 139.166 98.5234C139.486 98.8594 139.938 99.0273 140.52 99.0273C140.902 99.0273 141.258 98.9922 141.586 98.9219C141.918 98.8477 142.273 98.7266 142.652 98.5586V99.6777C142.316 99.8379 141.977 99.9512 141.633 100.018C141.289 100.084 140.896 100.117 140.455 100.117ZM140.203 94.4453C139.766 94.4453 139.414 94.584 139.148 94.8613C138.887 95.1387 138.73 95.543 138.68 96.0742H141.621C141.613 95.5391 141.484 95.1348 141.234 94.8613C140.984 94.584 140.641 94.4453 140.203 94.4453ZM148.893 98.1543C148.893 98.7871 148.662 99.2734 148.201 99.6133C147.74 99.9492 147.08 100.117 146.221 100.117C145.357 100.117 144.664 99.9863 144.141 99.7246V98.5352C144.902 98.8867 145.611 99.0625 146.268 99.0625C147.115 99.0625 147.539 98.8066 147.539 98.2949C147.539 98.1309 147.492 97.9941 147.398 97.8848C147.305 97.7754 147.15 97.6621 146.936 97.5449C146.721 97.4277 146.422 97.2949 146.039 97.1465C145.293 96.8574 144.787 96.5684 144.521 96.2793C144.26 95.9902 144.129 95.6152 144.129 95.1543C144.129 94.5996 144.352 94.1699 144.797 93.8652C145.246 93.5566 145.855 93.4023 146.625 93.4023C147.387 93.4023 148.107 93.5566 148.787 93.8652L148.342 94.9023C147.643 94.6133 147.055 94.4688 146.578 94.4688C145.852 94.4688 145.488 94.6758 145.488 95.0898C145.488 95.293 145.582 95.4648 145.77 95.6055C145.961 95.7461 146.375 95.9395 147.012 96.1855C147.547 96.3926 147.936 96.582 148.178 96.7539C148.42 96.9258 148.6 97.125 148.717 97.3516C148.834 97.5742 148.893 97.8418 148.893 98.1543Z" fill="white"/>
</g>
<defs>
<filter id="filter0_d" x="-46" y="0" width="496" height="209" filterUnits="userSpaceOnUse" color-interpolation-filters="sRGB">
<feFlood flood-opacity="0" result="BackgroundImageFix"/>
<feColorMatrix in="SourceAlpha" type="matrix" values="0 0 0 0 0 0 0 0 0 0 0 0 0 0 0 0 0 0 127 0"/>
<feOffset dx="4" dy="24"/>
<feGaussianBlur stdDeviation="32"/>
<feColorMatrix type="matrix" values="0 0 0 0 0 0 0 0 0 0 0 0 0 0 0 0 0 0 0.12 0"/>
<feBlend mode="normal" in2="BackgroundImageFix" result="effect1_dropShadow"/>
<feBlend mode="normal" in="SourceGraphic" in2="effect1_dropShadow" result="shape"/>
</filter>
<linearGradient id="paint0_linear" x1="14" y1="83.1413" x2="429.951" y2="83.8475" gradientUnits="userSpaceOnUse">
<stop stop-color="#25335A"/>
<stop offset="1" stop-color="#141824"/>
</linearGradient>
<linearGradient id="paint1_linear" x1="330.766" y1="68.8627" x2="330.766" y2="76.4326" gradientUnits="userSpaceOnUse">
<stop stop-color="white"/>
<stop offset="1"/>
</linearGradient>
</defs>
</svg>
