<svg width="28" height="24" viewBox="0 0 28 24" fill="none" xmlns="http://www.w3.org/2000/svg">
<path d="M0 16.7821C0 16.2369 0.569819 15.7949 1.27273 15.7949C1.97564 15.7949 2.54545 16.2369 2.54545 16.7821V22.7051C2.54545 23.2503 1.97564 23.6923 1.27273 23.6923C0.569819 23.6923 0 23.2503 0 22.7051V16.7821Z" fill="#4F5E7B" fill-opacity="0.8"/>
<path d="M6.36364 12.8333C6.36364 12.2881 6.93346 11.8462 7.63636 11.8462C8.33927 11.8462 8.90909 12.2881 8.90909 12.8333V22.7051C8.90909 23.2503 8.33927 23.6923 7.63636 23.6923C6.93346 23.6923 6.36364 23.2503 6.36364 22.7051V12.8333Z" fill="#4F5E7B" fill-opacity="0.8"/>
<path d="M12.7273 6.91026C12.7273 6.36505 13.2971 5.92308 14 5.92308C14.7029 5.92308 15.2727 6.36505 15.2727 6.91026V22.7051C15.2727 23.2503 14.7029 23.6923 14 23.6923C13.2971 23.6923 12.7273 23.2503 12.7273 22.7051C12.7273 16.5368 12.7273 13.0785 12.7273 6.91026Z" fill="#4F5E7B" fill-opacity="0.8"/>
<path d="M19.0909 8.88462C19.0909 8.33941 19.6607 7.89744 20.3636 7.89744C21.0665 7.89744 21.6364 8.33941 21.6364 8.88462V22.7051C21.6364 23.2503 21.0665 23.6923 20.3636 23.6923C19.6607 23.6923 19.0909 23.2503 19.0909 22.7051V8.88462Z" fill="#4F5E7B" fill-opacity="0.8"/>
<path d="M25.4545 0.98718C25.4545 0.441976 26.0244 0 26.7273 0C27.4302 0 28 0.441975 28 0.98718V22.7051C28 23.2503 27.4302 23.6923 26.7273 23.6923C26.0244 23.6923 25.4545 23.2503 25.4545 22.7051V0.98718Z" fill="#4F5E7B" fill-opacity="0.8"/>
</svg>
